<?xml version="1.0" encoding="UTF-8"?>
<svg width="191px" height="22px" viewBox="0 0 191 22" version="1.1" xmlns="http://www.w3.org/2000/svg" xmlns:xlink="http://www.w3.org/1999/xlink">
    <!-- Generator: Sketch 42 (36781) - http://www.bohemiancoding.com/sketch -->
    <title>prereview_logo_text_colour</title>
    <desc>Created with Sketch.</desc>
    <defs></defs>
    <g id="Page-1" stroke="none" stroke-width="1" fill="none" fill-rule="evenodd">
        <g id="prereview_logo_h_colour" transform="translate(-70.000000, -20.000000)" fill-rule="nonzero">
            <g id="PreReview-Logo---Horizontal---Colour" transform="translate(1.000000, 1.000000)">
                <g id="prereview_logo_text_colour" transform="translate(69.000000, 19.000000)">
                    <path d="M15.7,7 C15.8,9 15,11 13.5,12.3 C11.7,13.6 9.5,14.3 7.3,14.1 L5.3,14.1 L5.3,21.8 L0.7,21.8 L0.7,0.2 L7.6,0.2 C9.7,-4.27435864e-15 11.9,0.6 13.6,1.9 C15,3.2 15.8,5 15.7,7 Z M5.3,10.4 L6.8,10.4 C7.9,10.5 9,10.2 10,9.6 C10.7,9 11.1,8.1 11.1,7.2 C11.2,6.3 10.9,5.4 10.2,4.8 C9.4,4.2 8.4,3.9 7.4,4 L5.3,4 C5.3,4 5.3,10.4 5.3,10.4 Z" id="Shape" fill="#FF3333"></path>
                    <path d="M28.6,13.5 L28.6,21.8 L24.1,21.8 L24.1,0.2 L30.4,0.2 C33.3,0.2 35.5,0.7 36.9,1.8 C39.3,3.9 39.7,7.4 38,10.1 C37.2,11.1 36.2,11.9 35,12.4 C38.3,17.3 40.4,20.4 41.4,21.8 L36.3,21.8 L31.1,13.5 L28.6,13.5 Z M28.6,9.8 L30.1,9.8 C31.2,9.9 32.3,9.6 33.3,9.1 C34,8.6 34.4,7.7 34.3,6.8 C34.4,5.9 34,5.1 33.2,4.6 C32.2,4.1 31.1,3.9 29.9,3.9 L28.5,3.9 L28.6,9.8 Z" id="Shape" fill="#FF3333"></path>
                    <polygon id="Shape" fill="#FF3333" points="60.7 21.8 48.2 21.8 48.2 0.2 60.7 0.2 60.7 4 52.8 4 52.8 8.8 60.1 8.8 60.1 12.6 52.8 12.6 52.8 18.2 60.7 18.2"></polygon>
                    <path d="M71.3,12.4 L71.3,21.8 L69.8,21.8 L69.8,0.2 L74.9,0.2 C77.6,0.2 79.5,0.7 80.8,1.7 C82.1,2.8 82.8,4.5 82.7,6.2 C82.7,7.5 82.3,8.8 81.6,9.9 C80.7,11 79.5,11.7 78.1,12.1 L84,21.9 L82.2,21.9 L76.6,12.5 L71.3,12.4 L71.3,12.4 L71.3,12.4 Z M71.3,11.1 L75.4,11.1 C76.9,11.2 78.4,10.8 79.6,9.9 C80.6,9 81.2,7.7 81.1,6.3 C81.2,4.9 80.7,3.6 79.6,2.7 C78.6,2 77,1.6 74.8,1.6 L71.2,1.6 L71.3,11.1 Z" id="Shape" fill="#000000"></path>
                    <polygon id="Shape" fill="#000000" points="103.9 21.8 92.1 21.8 92.1 0.2 103.9 0.2 103.9 1.6 93.6 1.6 93.6 9.8 103.3 9.8 103.3 11.2 93.6 11.2 93.6 20.5 103.9 20.5"></polygon>
                    <path d="M125.8,0.2 L127.4,0.2 L119.4,21.8 L118.1,21.8 L110,0.2 L111.6,0.2 L117.1,14.9 C117.9,17.1 118.5,18.8 118.8,19.9 C119,19.2 119.4,18 120,16.5 L125.8,0.2 Z" id="Shape" fill="#000000"></path>
                    <polygon id="Shape" fill="#000000" points="134.8 21.8 134.8 0.2 136.3 0.2 136.3 21.8 134.8 21.8"></polygon>
                    <polygon id="Shape" fill="#000000" points="158.4 21.8 146.6 21.8 146.6 0.2 158.4 0.2 158.4 1.6 148.1 1.6 148.1 9.8 157.8 9.8 157.8 11.2 148.1 11.2 148.1 20.5 158.4 20.5"></polygon>
                    <path d="M184.8,21.8 L183.6,21.8 L178.8,5.1 C178.4,3.7 178.1,2.6 177.9,1.7 C177.7,2.6 177.5,3.6 177.2,4.7 C176.9,5.8 175.3,11.5 172.4,21.8 L171.1,21.8 L165.1,0.2 L166.7,0.2 L170.5,14.1 L170.9,15.7 C171,16.2 171.1,16.6 171.3,17 C171.5,17.4 171.5,17.8 171.6,18.2 C171.7,18.6 171.8,19 171.8,19.4 C172,18.1 172.5,16 173.3,13.3 L177,0.2 L178.7,0.2 L183,15.2 C183.5,16.9 183.9,18.3 184.1,19.4 C184.2,18.7 184.4,17.9 184.6,17.1 C184.8,16.3 186.3,10.6 189.2,0.1 L190.7,0.1 L184.8,21.8 Z" id="Shape" fill="#000000"></path>
                </g>
            </g>
        </g>
    </g>
</svg>